<?xml version="1.0" encoding="UTF-8"?>
<svg id="main" xmlns="http://www.w3.org/2000/svg" xmlns:xlink="http://www.w3.org/1999/xlink" viewBox="0 0 172.42 145.75">
  <defs>
    <style>
      .cls-1 {
        fill: #68f455;
      }

      .cls-2 {
        fill: #4fe573;
      }

      .cls-3 {
        fill: url(#_未命名的渐变_3);
      }

      .cls-4 {
        fill: #3fc680;
      }

      .cls-5 {
        fill: #3d4650;
      }

      .cls-6 {
        fill: #39db90;
      }

      .cls-7 {
        fill: #232d2d;
      }
    </style>
    <linearGradient id="_未命名的渐变_3" data-name="未命名的渐变 3" x1="42.11" y1="37.97" x2="135.42" y2="86.33" gradientUnits="userSpaceOnUse">
      <stop offset="0" stop-color="#6bf84d"/>
      <stop offset="1" stop-color="#34da97"/>
    </linearGradient>
  </defs>
  <g id="logo">
    <g id="wordmark">
      <g id="ROTECTION">
        <polygon id="N" class="cls-5" points="170.03 134.98 170.03 142.67 162.46 134.98 160.04 134.98 160.04 145.67 162.43 145.67 162.43 137.97 170 145.67 172.42 145.67 172.42 134.98 170.03 134.98"/>
        <path id="O" class="cls-5" d="M156.98,136.27c-1.05-.91-2.56-1.37-4.53-1.37h-2.69c-1.29,0-2.37.21-3.27.6-.08.03-.17.07-.25.11-.03.02-.07.03-.09.04v.02c-.34.17-.68.36-.95.6-1.05.91-1.57,2.26-1.57,4.04s.52,3.15,1.57,4.06c.28.24.61.43.95.6v.02s.07.03.1.04c.08.04.16.07.24.1.88.39,1.92.6,3.17.6h2.87c1.92,0,3.41-.46,4.46-1.37s1.57-2.26,1.57-4.06-.52-3.13-1.57-4.04ZM156.04,141.29c-.16.88-.55,1.51-1.16,1.91-.61.4-1.48.6-2.59.6h-2.32c-1.14,0-2.01-.2-2.63-.6-.49-.32-.82-.82-1.07-1.43-.05-.15-.1-.31-.13-.48-.09-.68-.11-1.33,0-1.94.03-.19.09-.36.14-.53.23-.48.63-1.09,1.06-1.37.62-.4,1.48-.6,2.59-.6h2.36c1.11,0,1.97.2,2.59.6.62.4,1.01,1.03,1.17,1.9.11.61.09,1.26,0,1.94Z"/>
        <rect id="I" class="cls-5" x="139.77" y="134.98" width="2.39" height="10.69"/>
        <polygon id="T" class="cls-5" points="124.89 140.39 127.31 140.39 127.31 136.93 129.98 136.93 129.98 145.67 132.37 145.67 132.37 136.93 135.63 136.93 135.63 140.39 138.05 140.39 138.05 134.98 124.89 134.98 124.89 140.39"/>
        <path id="C" class="cls-5" d="M115.52,142.97c-.63-.55-.94-1.44-.94-2.65s.31-2.1.94-2.65c.63-.55,1.59-.82,2.89-.82h5.22v-1.91l-5.38-.03c-1.97,0-3.48.44-4.53,1.36s-1.57,2.27-1.57,4.05.52,3.15,1.57,4.06,2.56,1.37,4.53,1.37h5.53v-1.94h-5.37c-1.3,0-2.26-.28-2.89-.83Z"/>
        <polygon id="E" class="cls-5" points="99.37 145.67 111.09 145.67 111.09 143.73 101.76 143.73 101.76 141.23 110.22 141.23 110.22 139.29 101.76 139.29 101.76 136.93 111.09 136.93 111.09 134.98 99.37 134.98 99.37 145.67"/>
        <polygon id="T-2" data-name="T" class="cls-5" points="84.49 140.39 86.91 140.39 86.91 136.93 89.58 136.93 89.58 145.67 91.97 145.67 91.97 136.93 95.23 136.93 95.23 140.39 97.65 140.39 97.65 134.98 84.49 134.98 84.49 140.39"/>
        <path id="O-2" data-name="O" class="cls-5" d="M81.78,136.27c-1.05-.91-2.56-1.37-4.53-1.37h-2.69c-1.29,0-2.37.21-3.27.6-.08.03-.17.07-.25.11-.03.02-.07.03-.09.04v.02c-.34.17-.68.36-.95.6-1.05.91-1.57,2.26-1.57,4.04s.52,3.15,1.57,4.06c.28.24.61.43.95.6v.02s.07.03.1.04c.08.04.16.07.24.1.88.39,1.92.6,3.17.6h2.87c1.92,0,3.41-.46,4.46-1.37s1.57-2.26,1.57-4.06-.52-3.13-1.57-4.04ZM80.84,141.29c-.16.88-.55,1.51-1.16,1.91-.61.4-1.48.6-2.59.6h-2.32c-1.14,0-2.01-.2-2.63-.6-.49-.32-.82-.82-1.07-1.43-.05-.15-.1-.31-.13-.48-.09-.68-.11-1.33,0-1.94.03-.19.09-.36.14-.53.23-.48.63-1.09,1.06-1.37.62-.4,1.48-.6,2.59-.6h2.36c1.11,0,1.97.2,2.59.6.62.4,1.01,1.03,1.17,1.9.11.61.09,1.26,0,1.94Z"/>
        <path id="R" class="cls-5" d="M67.28,138.36c0-1.14-.31-1.98-.92-2.54s-1.47-.84-2.58-.84h-8.96v10.69h2.39v-3.93h4.93l2.29,3.93h2.72l-2.47-4.01c.83-.14,1.47-.48,1.91-1.03.45-.55.67-1.3.67-2.27ZM64.51,139.47c-.23.22-.57.33-1.01.33h-6.28v-2.87h6.28c.44,0,.78.11,1.01.32.23.21.35.59.35,1.11s-.12.89-.35,1.11Z"/>
      </g>
      <g id="DEEP">
        <path id="P" class="cls-4" d="M49.83,134.98h-8.96v10.69h2.39v-3.93h6.56c1.11,0,1.97-.28,2.58-.84.61-.56.92-1.41.92-2.54s-.31-1.98-.92-2.54-1.47-.84-2.58-.84ZM50.56,139.47c-.23.22-.57.33-1.01.33h-6.28v-2.87h6.28c.44,0,.78.11,1.01.32.23.21.35.59.35,1.11s-.12.89-.35,1.11Z"/>
        <polygon id="E-2" data-name="E" class="cls-4" points="27.51 145.67 39.23 145.67 39.23 143.73 29.9 143.73 29.9 141.23 38.37 141.23 38.37 139.29 29.9 139.29 29.9 136.93 39.23 136.93 39.23 134.98 27.51 134.98 27.51 145.67"/>
        <polygon id="E-3" data-name="E" class="cls-4" points="14.14 145.67 25.87 145.67 25.87 143.73 16.54 143.73 16.54 141.23 25 141.23 25 139.29 16.54 139.29 16.54 136.93 25.87 136.93 25.87 134.98 14.14 134.98 14.14 145.67"/>
        <path id="D" class="cls-4" d="M6.55,134.97H1.76s-1.76.01-1.76.01v10.69h6.55c1.93,0,3.43-.45,4.5-1.36,1.07-.91,1.6-2.24,1.6-3.99s-.53-3.09-1.6-3.99c-1.07-.91-2.57-1.36-4.5-1.36ZM9.24,142.91c-.65.55-1.6.82-2.86.82h-3.99v-6.82h3.99c1.26,0,2.21.27,2.86.82.65.54.97,1.41.97,2.59s-.32,2.04-.97,2.59Z"/>
      </g>
    </g>
    <g id="symbol">
      <g id="fg">
        <path class="cls-3" d="M99.81,15.21l-.3-6.69L84.91,0l-14.6,8.59v7l14.9-8.59,14.6,8.21ZM70.31,105.25l.3,6.69,14.6,8.52,14.6-8.52v-7l-14.9,8.52-14.6-8.21ZM38.98,69.12l-6.31,3.8v16.81l14.83,8.52,6.01-3.5-14.6-8.52.08-17.11ZM38.98,33.61l14.6-8.59-6.01-3.5-14.6,8.59v16.81l6.31,3.8-.3-17.11ZM131.45,69.73l.3,17.11-14.6,8.52,6.01,3.5,14.6-8.52v-16.5l-6.31-4.11ZM131.45,50.72l6.01-3.8.3-16.5-14.9-8.9-6.01,3.5,14.6,8.9v16.81Z"/>
      </g>
      <g id="bg">
        <path class="cls-1" d="M85.21,14.76l39.41,22.74v45.47l-39.41,22.74-39.41-22.74v-45.47l39.41-22.74Z"/>
        <path class="cls-6" d="M85.21,14.76l39.41,22.74v45.47l-39.41-22.74V14.76Z"/>
        <path class="cls-2" d="M85.21,60.23l39.41,22.74-39.5,22.74-39.28-22.74s39.37-22.74,39.37-22.74h0Z"/>
      </g>
      <g id="core">
        <path class="cls-7" d="M131.91,33.48L85.14,6.66l-46.7,26.75v53.57l46.83,26.82,46.7-26.69v-53.64h-.07ZM123.89,82.73l-38.61,22.44-38.68-22.51v-44.95l38.61-22.44,38.68,22.51v44.95Z"/>
        <path class="cls-7" d="M58.32,49.78l23.59,13.54v27.02c0,1.95,1.55,3.5,3.5,3.5s3.5-1.55,3.5-3.5v-27.09l23.52-13.54c1.68-.94,2.22-3.1,1.28-4.78h0c-.94-1.68-3.1-2.22-4.78-1.28l-23.59,13.54-23.59-13.54c-1.68-.94-3.77-.4-4.72,1.28-.94,1.68-.4,3.77,1.28,4.78h0v.07Z"/>
      </g>
    </g>
  </g>
</svg>