<?xml version="1.0" encoding="UTF-8"?>
<svg id="_图层_1" data-name="图层_1" xmlns="http://www.w3.org/2000/svg" viewBox="0 0 422.62 479.53">
  <defs>
    <style>
      .cls-1 {
        fill: #81c58e;
        fill-rule: evenodd;
      }

      .cls-2 {
        fill: #5c5c66;
      }
    </style>
  </defs>
  <path class="cls-2" d="M206.17,0v479.53l5.91-2.12c138.62-49.69,210.53-129.24,210.53-237.37V95.77L206.17,0Z"/>
  <g>
    <polygon class="cls-1" points="142.94 367.38 206.17 335.04 206.17 314.94 132.54 352.61 142.94 367.38"/>
    <path class="cls-1" d="M153.72,110.89V46.19l52.45-27.35V0c-1.67.07-3.32.45-4.81,1.23l-127.66,66.64-.55.23c-2.7,1.57-4.32,4.19-4.32,7.03v68.79l-63.81,31.91c-3.11,1.48-5.01,4.3-5.01,7.38v112.27c.28,2.85,2.14,5.35,5.11,6.8l63.71,31.24v70.16c0,2.94,1.76,5.67,4.87,7.27l127.53,67.31c1.53.81,3.23,1.2,4.95,1.25v-18.86l-49.21-25.98,49.21-24.91v-5.93l-7.23-10.48-61.29,31.1-48.58-25.52v-68.13l56.28-28.63-10.26-14.74-58.84,29.85-56.14-27.35v-45.31l61.4-31.21-10.26-14.76-51.13,25.98v-36.53l58.56-29.18,55.76,30.2v43.36l-41.7,22.93,11.06,14.42,39.53-21.91,36.45,21.8,11.61-14.07-36.83-22.03v-45.4l51.63-27.24v-66.88h-17.67v55.96h0l-44.77,23.71-54.66-29.62v-64.26l44.4-23.16v54.15h20.25Z"/>
  </g>
  <g>
    <path class="cls-1" d="M265.04,145.73v29.93h-58.87v12.29h64.97c3.42,0,6.1-2.77,6.1-6.1v-36.12c11.54-2.77,20.24-13.35,20.24-25.95,0-14.73-11.79-26.7-26.35-26.7s-26.28,11.98-26.28,26.7c-.08,12.27,8.29,23.01,20.18,25.95ZM271.14,105.37c7.89.08,14.23,6.52,14.14,14.41.08,7.89-6.25,14.31-14.14,14.31s-14.16-6.41-14.16-14.31c-.08-7.89,6.27-14.33,14.16-14.41Z"/>
    <path class="cls-1" d="M333.94,195.67c-12.29.08-22.93,8.54-25.62,20.52h-102.15v12.35h102.15c2.69,11.96,13.33,20.43,25.62,20.52,14.5,0,26.28-11.98,26.28-26.7s-11.79-26.68-26.28-26.68ZM333.85,236.77c-7.81,0-14.14-6.44-14.14-14.41-.08-7.89,6.33-14.31,14.14-14.31v-.08c7.89.08,14.25,6.5,14.25,14.39s-6.35,14.33-14.25,14.41Z"/>
    <path class="cls-1" d="M259.02,333.91v-28.47c0-3.42-2.77-6.19-6.1-6.19h-46.75v12.37h40.65v22.2c-11.56,2.85-20.27,13.43-20.27,25.95,0,14.81,11.79,26.68,26.37,26.68s26.26-11.87,26.26-26.68c.08-12.21-8.29-22.93-20.16-25.87ZM252.92,374.17c-7.81,0-14.16-6.41-14.16-14.31-.08-7.89,6.27-14.33,14.16-14.39,7.89.06,14.23,6.5,14.14,14.39.08,7.89-6.25,14.31-14.14,14.31Z"/>
    <path class="cls-1" d="M309.61,273.61c-4.62,0-9.19,1.23-13.16,3.58l-14.25-18.45h-76.03v12.35h70.1l11.31,14.56c-2.69,4.25-4.31,9.29-4.31,14.66,0,14.73,11.79,26.68,26.35,26.68s26.28-11.96,26.28-26.68-11.79-26.7-26.28-26.7ZM309.61,314.7c-7.81,0-14.14-6.44-14.14-14.39-.08-7.89,6.25-14.33,14.14-14.33s14.25,6.44,14.16,14.33c.08,7.87-6.27,14.31-14.16,14.39Z"/>
  </g>
</svg>