<?xml version="1.0" encoding="UTF-8"?>
<svg id="main" xmlns="http://www.w3.org/2000/svg" xmlns:xlink="http://www.w3.org/1999/xlink" viewBox="0 0 138.2 158.4">
  <defs>
    <style>
      .cls-1 {
        fill: #68f455;
      }

      .cls-2 {
        fill: #4fe573;
      }

      .cls-3 {
        fill: url(#_未命名的渐变_3);
      }

      .cls-4 {
        fill: #39db90;
      }

      .cls-5 {
        fill: #232d2d;
      }
    </style>
    <linearGradient id="_未命名的渐变_3" data-name="未命名的渐变 3" x1="12.42" y1="49.93" x2="135.12" y2="113.52" gradientUnits="userSpaceOnUse">
      <stop offset="0" stop-color="#6bf84d"/>
      <stop offset="1" stop-color="#34da97"/>
    </linearGradient>
  </defs>
  <g id="fg">
    <path class="cls-3" d="M88.3,20l-.4-8.8L68.7,0l-19.2,11.3v9.2l19.6-11.3,19.2,10.8ZM49.5,138.4l.4,8.8,19.2,11.2,19.2-11.2v-9.2l-19.6,11.2-19.2-10.8ZM8.3,90.9l-8.3,5v22.1l19.5,11.2,7.9-4.6-19.2-11.2.1-22.5ZM8.3,44.2l19.2-11.3-7.9-4.6L.4,39.6v22.1l8.3,5-.4-22.5ZM129.9,91.7l.4,22.5-19.2,11.2,7.9,4.6,19.2-11.2v-21.7l-8.3-5.4ZM129.9,66.7l7.9-5,.4-21.7-19.6-11.7-7.9,4.6,19.2,11.7v22.1Z"/>
  </g>
  <g id="bg">
    <path class="cls-1" d="M69.1,19.4l51.83,29.9v59.8l-51.83,29.9-51.83-29.9v-59.8l51.83-29.9Z"/>
    <path class="cls-4" d="M69.1,19.4l51.83,29.9v59.8l-51.83-29.9V19.4Z"/>
    <path class="cls-2" d="M69.1,79.2l51.83,29.9-51.95,29.9-51.65-29.9c0,.06,51.77-29.9,51.77-29.9h0Z"/>
  </g>
  <g id="core">
    <path class="cls-5" d="M130.51,44.02L69.01,8.75,7.6,43.93v70.45l61.59,35.27,61.41-35.09V44.02h-.09ZM119.96,108.8l-50.78,29.51-50.86-29.6v-59.11l50.78-29.51,50.86,29.6v59.11Z"/>
    <path class="cls-5" d="M33.74,65.46l31.01,17.81v35.53c0,2.57,2.04,4.61,4.61,4.61s4.61-2.04,4.61-4.61v-35.62l30.93-17.81c2.22-1.24,2.92-4.08,1.68-6.29h0c-1.24-2.22-4.08-2.92-6.29-1.68l-31.01,17.81-31.01-17.81c-2.22-1.24-4.96-.53-6.2,1.68-1.24,2.22-.53,4.96,1.68,6.29h0v.09Z"/>
  </g>
</svg>