<?xml version="1.0" encoding="UTF-8"?>
<svg xmlns="http://www.w3.org/2000/svg" version="1.1" viewBox="0 0 512 512">
  <defs>
    <style>
      .cls-1 {
        fill: #fff;
      }

      .cls-2 {
        fill: #e20613;
      }
    </style>
  </defs>
  <!-- Generator: Adobe Illustrator 28.7.1, SVG Export Plug-In . SVG Version: 1.2.0 Build 142)  -->
  <g>
    <g id="_图层_1" data-name="图层_1">
      <g id="main">
        <path id="head" class="cls-2" d="M380.24,330.36l-142.6-75.74,201.12-7.72-1.45-37.8-1.16-30.2c-.48-12.63-11.12-22.48-23.75-21.99l-204.52,7.85c-6.15-10.06-17.23-16.77-29.88-16.77-13.61,0-25.39,7.77-31.18,19.11l-50.87,1.95c-12.63.48-22.48,11.12-21.99,23.75l1.31,34.25,1.29,33.75.58-.02,89.67,47.63.05-.1,175.56,93.24c15.64,8.31,35.05,2.36,43.36-13.28l.38-.72h0l5-9.41,2.35-4.43s0,0,0,0l15.04-28.32-28.32-15.04s0,0,0,0Z"/>
        <g id="eye">
          <circle class="cls-1" cx="178" cy="185.5" r="24.9"/>
          <circle cx="178" cy="185" r="15"/>
          <path class="cls-2" d="M200.41,174.42c-4.09-8.25-12.58-13.92-22.41-13.92-10.34,0-19.21,6.28-23.02,15.23l45.43-1.31Z"/>
        </g>
      </g>
      <g>
        <path class="cls-1" d="M301.56,237.98c0-.08-.02-.14-.02-.2-.06-2-.1-4-.17-5.99-.17-4.88-.36-9.76-.55-14.64-.17-4.33-.36-8.67-.55-13-.17-4.12-.35-8.24-.52-12.35-.08-2.02-.16-4.04-.24-6.07-.07-1.84-.15-3.68-.23-5.52,0-.22.04-.28.28-.27.75,0,1.51-.02,2.26-.05,2.37-.1,4.74-.2,7.11-.3.19,0,.25.05.32.22.58,1.4,1.16,2.8,1.75,4.2.83,1.96,1.66,3.92,2.5,5.88.71,1.66,1.41,3.33,2.11,4.99.89,2.13,1.76,4.26,2.65,6.38.46,1.09.95,2.17,1.41,3.26.58,1.38,1.14,2.78,1.71,4.16.02.04.04.08.09.18.05-.14.09-.22.12-.31.4-1.25.8-2.5,1.2-3.74.46-1.42.92-2.84,1.38-4.26.54-1.66,1.07-3.31,1.61-4.97.63-1.97,1.25-3.93,1.88-5.9.73-2.27,1.46-4.55,2.19-6.82.41-1.27.81-2.54,1.2-3.82.06-.21.16-.28.38-.29,2.6-.11,5.2-.23,7.8-.34.71-.03,1.42-.06,2.14-.09.16,0,.23.03.24.22.12,3.17.24,6.35.37,9.52.13,3.25.27,6.5.4,9.74.12,2.94.25,5.88.37,8.82.13,3.12.26,6.23.38,9.35.11,2.74.21,5.49.32,8.23.15,3.79.31,7.59.47,11.38,0,.2,0,.4.02.6,0,.14-.04.2-.2.21-3.02.12-6.03.24-9.05.37-.18,0-.24-.04-.25-.23-.18-4.88-.36-9.76-.55-14.64-.14-3.53-.29-7.06-.42-10.59-.13-3.48-.25-6.96-.37-10.44-.02-.56-.03-1.11-.04-1.67,0-.07-.02-.14-.03-.27-.05.08-.08.11-.09.14-.35,1.07-.7,2.14-1.04,3.22-.66,2.1-1.31,4.21-1.98,6.31-.82,2.56-1.66,5.11-2.49,7.66-.6,1.85-1.21,3.7-1.81,5.56-.05.15-.14.15-.26.16-1.98.08-3.96.16-5.94.25-.29.01-.58.04-.87.07-.18.02-.27-.03-.3-.23-.03-.21-.11-.42-.19-.62-.85-2.1-1.7-4.2-2.55-6.29-.68-1.67-1.36-3.33-2.03-5-1.04-2.57-2.07-5.14-3.09-7.71-.27-.67-.52-1.34-.79-2.01-.05-.12-.11-.23-.19-.33.05.63.12,1.26.15,1.9.24,5.32.47,10.64.7,15.96.21,4.9.4,9.79.6,14.69.07,1.55.15,3.1.24,4.65.01.23-.09.26-.27.27-2.15.09-4.29.18-6.44.28-.93.04-1.87.1-2.84.16Z"/>
        <path class="cls-1" d="M362.85,235.67c-.44.02-.86.05-1.28.07-2.49.1-4.99.21-7.48.31-.25.01-.5.03-.74.05-.17.02-.21-.05-.22-.21-.06-1.87-.12-3.75-.19-5.62-.16-4.33-.31-8.67-.49-13-.19-4.6-.4-9.2-.6-13.8-.07-1.76-.12-3.51-.19-5.27-.23-5.54-.46-11.09-.69-16.63-.05-1.09-.09-2.19-.15-3.28,0-.19.05-.24.23-.25,2.77-.1,5.54-.2,8.3-.31,3.37-.13,6.74-.27,10.12-.41,2.14-.09,4.27-.19,6.41-.27,2.17-.09,4.1.54,5.72,1.99,1.43,1.28,2.4,2.86,2.77,4.75.13.64.1,1.3.13,1.96.21,5.1.42,10.19.63,15.29.06,1.57.13,3.15.17,4.72.05,2.04-.51,3.9-1.69,5.57-.88,1.24-2.06,2.14-3.42,2.81-1.22.6-2.52.77-3.86.83-4.2.18-8.4.39-12.6.58-.49.02-.98.05-1.47.05-.22,0-.26.08-.25.28.11,2.55.22,5.1.32,7.66.15,3.75.3,7.51.45,11.26.01.29.03.58.05.89ZM361.68,206.19s.05.03.06.03c1.22-.06,2.45-.13,3.67-.18,3.35-.15,6.69-.29,10.04-.44.35-.02.35-.01.34-.36-.11-2.92-.23-5.85-.34-8.77-.13-3.35-.25-6.69-.37-10.04,0-.03-.02-.06-.04-.12-4.72.21-9.43.41-14.15.62.26,6.44.53,12.85.79,19.26Z"/>
        <path class="cls-1" d="M422.37,224.12c.1,2.32.2,4.63.3,6.93.03.68.07,1.36.11,2.04.01.17-.03.23-.22.23-1.94.07-3.88.15-5.82.23-1.83.08-3.66.15-5.49.24-4.43.2-8.86.41-13.29.62-.8.04-1.59.07-2.39.12-.2.01-.26-.04-.26-.24-.07-1.96-.14-3.91-.22-5.87-.21-4.87-.42-9.74-.63-14.61-.21-5.09-.41-10.18-.62-15.26-.17-4.08-.36-8.15-.54-12.23-.12-2.82-.22-5.63-.34-8.45-.01-.35-.03-.7-.06-1.04-.01-.16.02-.23.21-.24,3.04-.12,6.08-.24,9.12-.37.11,0,.21,0,.33,0,.7,16.23,1.4,32.44,2.1,48.7,5.89-.26,11.8-.52,17.7-.78Z"/>
      </g>
    </g>
  </g>
</svg>